<svg width="329" height="135" viewBox="0 0 329 135" fill="none" xmlns="http://www.w3.org/2000/svg">
<path d="M23.272 91.48C20.904 91.48 19.208 90.968 18.184 89.944C17.16 88.856 16.648 86.84 16.648 83.896C16.648 81.912 16.84 79.384 17.224 76.312C17.672 73.176 18.376 68.888 19.336 63.448C21 53.4 22.312 44.696 23.272 37.336C23.848 32.728 24.136 28.888 24.136 25.816C24.136 22.936 23.08 21.496 20.968 21.496C19.304 21.496 17.288 22.36 14.92 24.088C12.616 25.752 10.056 28.44 7.24 32.152C6.344 33.368 5.352 33.976 4.264 33.976C3.368 33.976 2.568 33.56 1.864 32.728C1.224 31.832 0.904 30.84 0.904 29.752C0.904 28.728 1.096 27.704 1.48 26.68C1.928 25.592 2.632 24.376 3.592 23.032C6.664 18.744 10.088 15.448 13.864 13.144C17.64 10.776 21.416 9.592 25.192 9.592C28.712 9.592 31.4 10.712 33.256 12.952C35.176 15.192 36.136 18.456 36.136 22.744C36.136 24.472 35.976 26.52 35.656 28.888C35.336 31.192 35.048 33.08 34.792 34.552C34.536 36.024 34.344 37.048 34.216 37.624C37.864 27.192 41.96 19.928 46.504 15.832C51.048 11.672 56.04 9.592 61.48 9.592C65.64 9.592 68.904 11.064 71.272 14.008C73.704 16.952 74.92 21.112 74.92 26.488C74.92 28.6 74.632 31.224 74.056 34.36C77.256 25.528 81 19.192 85.288 15.352C89.576 11.512 94.504 9.592 100.072 9.592C104.552 9.592 107.976 11.032 110.344 13.912C112.776 16.792 113.992 20.824 113.992 26.008C113.992 28.824 113.576 32.248 112.744 36.28L106.888 63.736C106.248 66.936 105.928 69.688 105.928 71.992C105.928 74.68 106.536 76.696 107.752 78.04C109.032 79.384 110.792 80.056 113.032 80.056C115.144 80.056 117.192 79.352 119.176 77.944C121.224 76.536 123.624 74.2 126.376 70.936C127.144 70.04 128.008 69.592 128.968 69.592C129.8 69.592 130.44 69.976 130.888 70.744C131.4 71.512 131.656 72.568 131.656 73.912C131.656 76.408 131.048 78.392 129.832 79.864C126.504 83.896 123.208 86.84 119.944 88.696C116.68 90.552 113.256 91.48 109.672 91.48C104.232 91.48 99.976 89.88 96.904 86.68C93.832 83.416 92.296 79.064 92.296 73.624C92.296 69.848 93.064 64.376 94.6 57.208L98.44 39.64C98.568 39.064 98.792 38.04 99.112 36.568C99.432 35.096 99.688 33.72 99.88 32.44C100.072 31.096 100.168 29.784 100.168 28.504C100.168 26.264 99.72 24.6 98.824 23.512C97.992 22.36 96.776 21.784 95.176 21.784C92.168 21.784 89 23.736 85.672 27.64C82.408 31.48 79.272 37.88 76.264 46.84C73.32 55.8 70.92 67.448 69.064 81.784C68.616 85.624 67.816 88.216 66.664 89.56C65.576 90.84 63.784 91.48 61.288 91.48C59.112 91.48 57.512 90.968 56.488 89.944C55.528 88.92 55.048 87 55.048 84.184C55.048 81.56 55.4 78.136 56.104 73.912C56.808 69.624 57.704 64.6 58.792 58.84C61.736 43.352 63.208 33.368 63.208 28.888C63.208 26.456 62.728 24.664 61.768 23.512C60.872 22.36 59.496 21.784 57.64 21.784C54.504 21.784 51.272 23.576 47.944 27.16C44.616 30.68 41.352 36.984 38.152 46.072C35.016 55.096 32.392 67.32 30.28 82.744C29.832 86.008 29.16 88.28 28.264 89.56C27.432 90.84 25.768 91.48 23.272 91.48ZM172.881 61.528C173.713 61.528 174.353 61.944 174.801 62.776C175.249 63.608 175.473 64.664 175.473 65.944C175.473 69.016 174.545 70.84 172.689 71.416C168.849 72.76 164.625 73.528 160.017 73.72C158.801 79.096 156.401 83.416 152.817 86.68C149.233 89.88 145.169 91.48 140.625 91.48C136.785 91.48 133.489 90.552 130.737 88.696C128.049 86.84 126.001 84.376 124.593 81.304C123.185 78.232 122.48 74.904 122.48 71.32C122.48 66.456 123.409 62.136 125.265 58.36C127.121 54.52 129.681 51.544 132.945 49.432C136.209 47.256 139.825 46.168 143.793 46.168C148.657 46.168 152.561 47.864 155.505 51.256C158.513 54.584 160.273 58.712 160.785 63.64C163.793 63.448 167.377 62.808 171.537 61.72C172.049 61.592 172.497 61.528 172.881 61.528ZM141.393 81.304C143.441 81.304 145.201 80.472 146.673 78.808C148.209 77.144 149.233 74.744 149.745 71.608C147.761 70.264 146.225 68.504 145.137 66.328C144.113 64.152 143.601 61.848 143.601 59.416C143.601 58.392 143.697 57.368 143.889 56.344H143.409C140.849 56.344 138.705 57.592 136.977 60.088C135.313 62.52 134.481 65.976 134.481 70.456C134.481 73.976 135.153 76.664 136.497 78.52C137.905 80.376 139.537 81.304 141.393 81.304ZM216.193 61.528C217.025 61.528 217.665 61.944 218.113 62.776C218.561 63.608 218.785 64.664 218.785 65.944C218.785 69.016 217.857 70.84 216.001 71.416C212.161 72.76 207.937 73.528 203.329 73.72C202.113 79.096 199.713 83.416 196.129 86.68C192.545 89.88 188.481 91.48 183.937 91.48C180.097 91.48 176.801 90.552 174.049 88.696C171.361 86.84 169.313 84.376 167.905 81.304C166.497 78.232 165.793 74.904 165.793 71.32C165.793 66.456 166.721 62.136 168.577 58.36C170.433 54.52 172.993 51.544 176.257 49.432C179.521 47.256 183.137 46.168 187.105 46.168C191.969 46.168 195.873 47.864 198.817 51.256C201.825 54.584 203.585 58.712 204.097 63.64C207.105 63.448 210.689 62.808 214.849 61.72C215.361 61.592 215.809 61.528 216.193 61.528ZM184.705 81.304C186.753 81.304 188.513 80.472 189.985 78.808C191.521 77.144 192.545 74.744 193.057 71.608C191.073 70.264 189.537 68.504 188.449 66.328C187.425 64.152 186.913 61.848 186.913 59.416C186.913 58.392 187.009 57.368 187.201 56.344H186.721C184.161 56.344 182.017 57.592 180.289 60.088C178.625 62.52 177.793 65.976 177.793 70.456C177.793 73.976 178.465 76.664 179.809 78.52C181.217 80.376 182.849 81.304 184.705 81.304ZM265.074 69.592C265.906 69.592 266.546 69.976 266.994 70.744C267.506 71.512 267.762 72.568 267.762 73.912C267.762 76.472 267.154 78.456 265.938 79.864C263.314 83.064 260.434 85.816 257.298 88.12C254.162 90.36 251.058 91.48 247.986 91.48C243.122 91.48 239.41 88.632 236.85 82.936C234.162 86.328 231.794 88.6 229.746 89.752C227.762 90.904 225.426 91.48 222.738 91.48C218.834 91.48 215.602 90.04 213.042 87.16C210.546 84.216 209.298 80.408 209.298 75.736C209.298 70.616 210.386 65.88 212.562 61.528C214.738 57.112 217.714 53.528 221.49 50.776C225.33 47.96 229.618 46.296 234.354 45.784C235.57 33.368 237.874 22.776 241.266 14.008C244.722 5.17599 249.234 0.759995 254.802 0.759995C257.554 0.759995 259.826 2.008 261.618 4.504C263.474 7 264.402 10.776 264.402 15.832C264.402 23 262.642 31.384 259.122 40.984C255.602 50.584 250.898 60.44 245.01 70.552C245.266 74.264 245.81 76.92 246.642 78.52C247.538 80.12 248.658 80.92 250.002 80.92C251.73 80.92 253.49 80.152 255.281 78.616C257.074 77.08 259.474 74.52 262.482 70.936C263.25 70.04 264.114 69.592 265.074 69.592ZM253.746 10.168C252.53 10.168 251.314 12.344 250.098 16.696C248.882 20.984 247.826 26.616 246.93 33.592C246.098 40.568 245.49 47.864 245.106 55.48C252.274 39.864 255.858 27.32 255.858 17.848C255.858 15.416 255.634 13.528 255.186 12.184C254.802 10.84 254.322 10.168 253.746 10.168ZM226.098 81.784C227.314 81.784 228.53 81.304 229.746 80.344C230.962 79.32 232.498 77.464 234.354 74.776C233.714 71.32 233.394 67.448 233.394 63.16C233.394 61.624 233.458 59.128 233.586 55.672C230.066 56.76 227.122 59.128 224.754 62.776C222.45 66.36 221.298 70.36 221.298 74.776C221.298 79.448 222.898 81.784 226.098 81.784ZM296.336 69.592C297.168 69.592 297.808 69.976 298.256 70.744C298.768 71.512 299.024 72.568 299.024 73.912C299.024 76.472 298.416 78.456 297.2 79.864C294.448 83.256 291.44 86.04 288.176 88.216C284.976 90.392 281.328 91.48 277.232 91.48C271.6 91.48 267.408 88.92 264.656 83.8C261.968 78.68 260.624 72.056 260.624 63.928C260.624 56.12 261.616 47.224 263.6 37.24C265.648 27.256 268.624 18.68 272.528 11.512C276.496 4.34399 281.2 0.759995 286.64 0.759995C289.712 0.759995 292.112 2.2 293.84 5.08C295.632 7.896 296.528 11.96 296.528 17.272C296.528 24.888 294.416 33.72 290.192 43.768C285.968 53.816 280.24 63.768 273.008 73.624C273.456 76.248 274.192 78.136 275.216 79.288C276.24 80.376 277.584 80.92 279.248 80.92C281.872 80.92 284.176 80.184 286.16 78.712C288.144 77.176 290.672 74.584 293.744 70.936C294.512 70.04 295.376 69.592 296.336 69.592ZM284.528 10.264C283.056 10.264 281.392 12.92 279.536 18.232C277.68 23.544 276.048 30.136 274.64 38.008C273.232 45.88 272.464 53.432 272.336 60.664C276.88 53.176 280.496 45.688 283.184 38.2C285.872 30.648 287.216 23.768 287.216 17.56C287.216 12.696 286.32 10.264 284.528 10.264ZM324.864 46.264C326.336 46.264 327.36 46.456 327.936 46.84C328.512 47.224 328.8 47.864 328.8 48.76C328.8 50.296 327.968 55.768 326.304 65.176C324.832 74.2 323.968 79.544 323.712 81.208C321.344 97.656 318.08 110.68 313.92 120.28C309.76 129.88 304.224 134.68 297.312 134.68C294.048 134.68 291.392 133.656 289.344 131.608C287.296 129.624 286.272 127 286.272 123.736C286.272 120.728 286.944 117.656 288.288 114.52C289.696 111.384 292.256 107.768 295.968 103.672C299.744 99.64 305.056 95 311.904 89.752L312.192 87.544C312.64 85.176 313.152 81.784 313.728 77.368C312.448 81.976 310.656 85.496 308.352 87.928C306.048 90.296 303.616 91.48 301.056 91.48C298.176 91.48 295.808 90.168 293.952 87.544C292.16 84.856 291.264 81.528 291.264 77.56C291.264 72.76 291.584 68.376 292.224 64.408C292.864 60.376 293.92 56.12 295.392 51.64C296.032 49.72 296.928 48.344 298.08 47.512C299.232 46.68 301.056 46.264 303.552 46.264C304.96 46.264 305.92 46.488 306.432 46.936C307.008 47.384 307.296 48.056 307.296 48.952C307.296 49.464 306.944 51.192 306.24 54.136C305.6 56.504 305.088 58.648 304.704 60.568C304.192 63.192 303.744 65.72 303.36 68.152C302.976 70.52 302.784 72.472 302.784 74.008C302.784 76.44 303.456 77.656 304.8 77.656C305.76 77.656 306.944 76.696 308.352 74.776C309.824 72.856 311.36 69.944 312.96 66.04C314.624 62.136 316.224 57.336 317.76 51.64C318.272 49.72 319.04 48.344 320.064 47.512C321.152 46.68 322.752 46.264 324.864 46.264ZM298.368 125.368C299.968 125.368 301.76 123.512 303.744 119.8C305.728 116.088 307.712 109.912 309.696 101.272C304.768 105.432 301.184 109.208 298.944 112.6C296.768 116.056 295.68 119.064 295.68 121.624C295.68 122.712 295.872 123.608 296.256 124.312C296.704 125.016 297.408 125.368 298.368 125.368Z" fill="white"/>
</svg>
